<svg xmlns="http://www.w3.org/2000/svg" xmlns:xlink="http://www.w3.org/1999/xlink" id="Layer_1" width="199.56" height="275" viewBox="0 0 199.56 275" xml:space="preserve">
<g>
	<path fill="#207F3E" d="M199.56,0v64.672c0,104.349-51.594,177.971-99.78,210.328C51.594,242.643,0,169.022,0,64.672V0H199.56"/>
	<path fill="#FFFFFF" d="M197.494,2.065H2.066v62.607c0,24.723,2.944,48.889,8.752,71.828c5.292,20.902,12.971,40.874,22.827,59.361   c17.008,31.904,40.457,59.068,66.136,76.642c25.678-17.575,49.128-44.738,66.137-76.642c9.853-18.487,17.533-38.459,22.825-59.361   c5.808-22.939,8.752-47.106,8.752-71.828V2.065L197.494,2.065z"/>
	<rect x="5.071" y="5.071" fill="#207F3E" width="189.418" height="46.351"/>
	<path fill="#E1E322" d="M13.732,135.764c5.231,20.667,12.823,40.412,22.564,58.683c16.408,30.781,38.862,57.066,63.484,74.398   c24.622-17.331,47.076-43.616,63.484-74.398c9.741-18.271,17.333-38.016,22.564-58.683c5.498-21.715,8.396-44.55,8.637-67.917   H5.095C5.336,91.214,8.235,114.049,13.732,135.764z"/>
	<path fill="#FCDA00" d="M194.489,54.428H5.071v10.245c0,1.06,0.014,2.117,0.023,3.175h189.371c0.01-1.059,0.023-2.115,0.023-3.175   V54.428z"/>
	<path fill="#207F3E" d="M22.563,133.527c5.051,19.956,12.377,39.012,21.772,56.633c14.514,27.227,34.041,50.913,55.445,67.374   c21.403-16.461,40.931-40.147,55.445-67.374c9.395-17.622,16.721-36.678,21.773-56.633c4.715-18.625,7.452-38.115,8.177-58.073   H14.386C15.112,95.412,17.847,114.902,22.563,133.527z"/>
	<path fill="#207F3E" d="M27.515,68.069l-0.889,2.927h-1.945l3.307-10.322h2.403l3.353,10.322h-2.02l-0.934-2.927H27.515z    M30.469,66.645l-0.812-2.541c-0.199-0.628-0.367-1.331-0.519-1.929h-0.032c-0.152,0.599-0.306,1.317-0.49,1.929l-0.796,2.541   H30.469z"/>
	<path fill="#207F3E" d="M35.183,60.812c0.598-0.123,1.684-0.213,2.741-0.213c1.394,0,2.251,0.168,2.956,0.658   c0.644,0.383,1.072,1.056,1.072,1.929c0,0.95-0.599,1.823-1.716,2.236v0.032c1.088,0.274,2.083,1.132,2.083,2.557   c0,0.918-0.399,1.637-0.995,2.127c-0.736,0.644-1.945,0.965-3.829,0.965c-1.041,0-1.836-0.077-2.312-0.138V60.812z M37.051,64.885   h0.965c1.301,0,2.036-0.614,2.036-1.485c0-0.965-0.735-1.41-1.929-1.41c-0.551,0-0.873,0.032-1.072,0.077V64.885z M37.051,69.631   c0.245,0.047,0.567,0.047,0.995,0.047c1.21,0,2.283-0.46,2.283-1.732c0-1.193-1.043-1.682-2.344-1.682h-0.934V69.631z"/>
	<path fill="#207F3E" d="M46.022,68.069l-0.887,2.927H43.19l3.308-10.322h2.403l3.353,10.322h-2.02L49.3,68.069H46.022z    M48.978,66.645l-0.812-2.541c-0.199-0.628-0.367-1.331-0.521-1.929h-0.03c-0.152,0.599-0.306,1.317-0.49,1.929l-0.796,2.541   H48.978z"/>
	<path fill="#207F3E" d="M53.691,60.674h5.958v1.548h-4.074v2.847h3.797v1.546h-3.797v4.38h-1.884V60.674z"/>
	<path fill="#207F3E" d="M62.449,68.069l-0.889,2.927h-1.943l3.306-10.322h2.405l3.353,10.322h-2.022l-0.934-2.927H62.449z    M65.405,66.645l-0.812-2.541c-0.199-0.628-0.369-1.331-0.521-1.929h-0.032c-0.152,0.599-0.306,1.317-0.49,1.929l-0.796,2.541   H65.405z"/>
	<path fill="#207F3E" d="M70.119,70.995V60.674h2.145l2.664,4.425c0.689,1.149,1.286,2.344,1.76,3.461h0.032   c-0.123-1.378-0.168-2.711-0.168-4.289v-3.598h1.745v10.322h-1.945l-2.695-4.548c-0.658-1.118-1.347-2.39-1.852-3.553l-0.045,0.014   c0.075,1.333,0.091,2.695,0.091,4.396v3.691H70.119z"/>
	<path fill="#207F3E" d="M82.534,68.069l-0.887,2.927h-1.945l3.307-10.322h2.403l3.353,10.322h-2.02l-0.934-2.927H82.534z    M85.489,66.645l-0.812-2.541c-0.199-0.628-0.367-1.331-0.521-1.929h-0.03c-0.152,0.599-0.306,1.317-0.49,1.929l-0.798,2.541   H85.489z"/>
	<path fill="#207F3E" d="M93.372,60.812c0.599-0.123,1.684-0.213,2.741-0.213c1.394,0,2.251,0.168,2.956,0.658   c0.642,0.383,1.07,1.056,1.07,1.929c0,0.95-0.597,1.823-1.714,2.236v0.032c1.086,0.274,2.083,1.132,2.083,2.557   c0,0.918-0.399,1.637-0.997,2.127c-0.734,0.644-1.943,0.965-3.827,0.965c-1.041,0-1.836-0.077-2.312-0.138V60.812z M95.24,64.885   h0.966c1.301,0,2.036-0.614,2.036-1.485c0-0.965-0.734-1.41-1.929-1.41c-0.551,0-0.873,0.032-1.073,0.077V64.885z M95.24,69.631   c0.245,0.047,0.567,0.047,0.995,0.047c1.211,0,2.281-0.46,2.281-1.732c0-1.193-1.041-1.682-2.342-1.682H95.24V69.631z"/>
	<path fill="#207F3E" d="M107.963,66.416h-3.89v3.031h4.35v1.548h-6.232V60.674h6.001v1.548h-4.119v2.664h3.89V66.416z"/>
	<path fill="#207F3E" d="M110.029,68.942c0.612,0.353,1.532,0.659,2.496,0.659c1.21,0,1.884-0.567,1.884-1.408   c0-0.782-0.521-1.24-1.838-1.716c-1.698-0.612-2.786-1.514-2.786-3.001c0-1.684,1.41-2.97,3.645-2.97   c1.118,0,1.943,0.245,2.48,0.521l-0.46,1.515c-0.367-0.197-1.086-0.49-2.052-0.49c-1.195,0-1.714,0.644-1.714,1.24   c0,0.798,0.596,1.165,1.974,1.7c1.791,0.673,2.664,1.578,2.664,3.063c0,1.653-1.256,3.108-3.92,3.108   c-1.086,0-2.219-0.322-2.786-0.66L110.029,68.942z"/>
	<path fill="#207F3E" d="M117.177,64.372c0.379-1.07,0.76-2.547,0.942-3.717l1.817-0.14c-0.395,1.323-1.027,2.843-1.576,3.744   L117.177,64.372z"/>
	<path fill="#207F3E" d="M123.608,62.252h-2.94v-1.578h7.794v1.578h-2.972v8.744h-1.882V62.252z"/>
	<path fill="#207F3E" d="M131.552,60.674v4.135h4.364v-4.135h1.884v10.322h-1.884v-4.548h-4.364v4.548h-1.882V60.674H131.552z"/>
	<path fill="#207F3E" d="M145.731,66.416h-3.89v3.031h4.348v1.548h-6.232V60.674h6.003v1.548h-4.119v2.664h3.89V66.416z"/>
	<path fill="#207F3E" d="M147.842,70.995V60.674h2.145l2.663,4.425c0.69,1.149,1.286,2.344,1.762,3.461h0.03   c-0.123-1.378-0.168-2.711-0.168-4.289v-3.598h1.746v10.322h-1.945l-2.695-4.548c-0.658-1.118-1.347-2.39-1.852-3.553l-0.045,0.014   c0.077,1.333,0.091,2.695,0.091,4.396v3.691H147.842z"/>
	<path fill="#207F3E" d="M158.191,60.812c0.827-0.138,1.884-0.213,3.001-0.213c1.929,0,3.262,0.397,4.21,1.193   c0.995,0.812,1.607,2.038,1.607,3.797c0,1.838-0.628,3.217-1.607,4.103c-1.025,0.934-2.664,1.41-4.67,1.41   c-1.102,0-1.929-0.061-2.541-0.138V60.812z M160.075,69.556c0.26,0.045,0.658,0.045,1.041,0.045   c2.451,0.016,3.904-1.333,3.904-3.951c0.016-2.281-1.301-3.582-3.659-3.582c-0.597,0-1.025,0.045-1.286,0.106V69.556z"/>
	<path fill="#207F3E" d="M174.419,66.416h-3.888v3.031h4.348v1.548h-6.232V60.674h6.003v1.548h-4.119v2.664h3.888V66.416z"/>
	<path fill="#FFFFFF" d="M179.314,81.949c0,0-15.244,17.154-36.603,42.603l-29.845,4.032l26.933-0.555   c-7.415,8.866-15.483,18.637-23.854,28.974L58.18,228.339c0.557,0.721,1.116,1.436,1.68,2.145l58.15-71.809   C157.018,110.502,179.314,81.949,179.314,81.949z"/>
	<path fill="#FCDA00" d="M152.308,158.943c0.428,0.348,0.825,0.168,1.128-0.207c1.984-2.449,21.739-48.308,25.878-76.787   c0,0-22.296,28.553-61.304,76.725l-58.15,71.809c1.592,2.008,3.207,3.981,4.848,5.91l78.177-96.542   C145.113,144.477,151.951,158.655,152.308,158.943z"/>
	<path fill="#F6F3B4" d="M110.23,126.949c-0.312,0.385-0.429,0.808-0.044,1.12c0.071,0.059,1.086,0.249,2.68,0.515l29.845-4.032   c21.358-25.449,36.603-42.603,36.603-42.603C152.642,95.469,112.28,124.418,110.23,126.949z"/>
	<path fill="#F6F3B4" d="M139.799,128.03l-2.855,0.059L57.001,226.81c0.389,0.511,0.784,1.019,1.177,1.528l57.767-71.335   C124.315,146.666,132.384,136.896,139.799,128.03z"/>
	<path fill="#FCDA00" d="M112.866,128.584c4.339,0.731,13.001,2.05,18.882,2.934l-75.91,93.741c0.387,0.517,0.772,1.036,1.163,1.55   l79.943-98.721L112.866,128.584z"/>
	<path fill="#207F3E" d="M143.114,127.524c-7.355,9.174-15.748,19.597-25.104,31.15l-58.15,71.809c0.36,0.454,0.717,0.91,1.078,1.36   l82.743-102.179L143.114,127.524z"/>
	<path fill="#FFFFFF" d="M20.246,81.949c0,0,15.244,17.154,36.603,42.603l29.845,4.032l-26.933-0.555   c7.415,8.866,15.483,18.637,23.854,28.974l57.765,71.335c-0.557,0.721-1.116,1.436-1.68,2.145l-58.15-71.809   C42.54,110.502,20.246,81.949,20.246,81.949z"/>
	<path fill="#FCDA00" d="M47.252,158.943c-0.428,0.348-0.825,0.168-1.127-0.207c-1.984-2.449-21.739-48.308-25.878-76.787   c0,0,22.294,28.553,61.304,76.725l58.15,71.809c-1.592,2.008-3.207,3.981-4.848,5.91l-78.177-96.542   C54.448,144.477,47.609,158.655,47.252,158.943z"/>
	<path fill="#F6F3B4" d="M89.33,126.949c0.312,0.385,0.431,0.808,0.044,1.12c-0.071,0.059-1.086,0.249-2.68,0.515l-29.845-4.032   C35.491,99.103,20.246,81.949,20.246,81.949C46.916,95.469,87.281,124.418,89.33,126.949z"/>
	<path fill="#F6F3B4" d="M59.762,128.03l2.855,0.059l79.943,98.721c-0.389,0.511-0.784,1.019-1.179,1.528l-57.765-71.335   C75.245,146.666,67.176,136.896,59.762,128.03z"/>
	<path fill="#FCDA00" d="M86.694,128.584c-4.339,0.731-13.001,2.05-18.882,2.934l75.91,93.741c-0.387,0.517-0.772,1.036-1.163,1.55   l-79.943-98.721L86.694,128.584z"/>
	<path fill="#207F3E" d="M56.446,127.524c7.355,9.174,15.748,19.597,25.104,31.15l58.15,71.809c-0.36,0.454-0.717,0.91-1.078,1.36   L55.879,129.665L56.446,127.524z"/>
	<path fill="#FFFFFF" d="M26.161,11.088h4.046v11.688h5.79v3.375h-9.836V11.088z"/>
	<path fill="#FFFFFF" d="M42.076,22.665l-0.849,3.485h-4.18l4.382-15.063h5.363l4.492,15.063h-4.358l-0.962-3.485H42.076z    M45.408,19.691l-0.693-2.703c-0.223-0.849-0.516-2.079-0.738-2.974h-0.044c-0.225,0.895-0.448,2.125-0.671,2.974l-0.647,2.703   H45.408z"/>
	<path fill="#FFFFFF" d="M65.97,20.742c-0.065-1.698-0.089-3.71-0.089-6.056h-0.067c-0.468,1.988-1.094,4.246-1.586,5.9   l-1.499,5.253h-3.152l-1.25-5.253c-0.403-1.609-0.851-3.845-1.208-5.9h-0.044c-0.091,2.123-0.158,4.358-0.225,6.056l-0.245,5.409   h-3.71l0.938-15.063h5.432l0.984,4.068c0.425,1.652,0.871,3.665,1.185,5.497h0.067c0.424-1.832,0.916-3.955,1.362-5.543   l1.139-4.022h5.298l0.76,15.063H66.15L65.97,20.742z"/>
	<path fill="#FFFFFF" d="M79.159,26.397c-4.67,0-7.241-3.509-7.241-7.689c0-4.38,2.861-7.867,7.488-7.867   c4.85,0,7.308,3.598,7.308,7.622c0,4.85-2.905,7.934-7.531,7.934H79.159z M79.36,23.202c1.945,0,3.084-1.878,3.084-4.605   c0-2.593-1.161-4.559-3.128-4.559c-1.945,0-3.13,1.967-3.13,4.581c-0.022,2.705,1.185,4.583,3.13,4.583H79.36z"/>
	<path fill="#FFFFFF" d="M88.86,26.151V11.088h4.761l2.391,4.626c0.829,1.497,1.7,3.509,2.369,5.274h0.067   c-0.223-1.99-0.312-4.089-0.312-6.325v-3.576h3.687v15.063h-4.246l-2.571-5.006c-0.827-1.588-1.811-3.622-2.526-5.43h-0.089   c0.113,2.034,0.156,4.291,0.156,6.728v3.708H88.86z"/>
	<path fill="#FFFFFF" d="M107.548,14.484h-3.845v-3.396h11.801v3.396h-3.91v11.666h-4.046V14.484z"/>
	<path fill="#FFFFFF" d="M121.541,26.151l-4.783-15.063h4.425l1.609,5.922c0.468,1.698,0.871,3.353,1.252,5.274h0.043   c0.358-1.833,0.784-3.576,1.23-5.207l1.631-5.989h4.291l-4.917,15.063H121.541z"/>
	<path fill="#FFFFFF" d="M136.92,11.088v15.063h-4.046V11.088H136.92z"/>
	<path fill="#FFFFFF" d="M139.692,11.088h4.044v11.688h5.79v3.375h-9.834V11.088z"/>
	<path fill="#FFFFFF" d="M151.495,11.088h4.044v11.688h5.79v3.375h-9.834V11.088z"/>
	<path fill="#FFFFFF" d="M172.75,20.073h-5.409v2.77h6.058v3.308h-10.104V11.088h9.79v3.308h-5.744v2.413h5.409V20.073z"/>
	<path fill="#FFFFFF" d="M22.93,44.714c-1.14,0.379-3.241,0.849-5.207,0.849c-2.95,0-4.963-0.736-6.325-2.034   c-1.408-1.341-2.147-3.286-2.147-5.43c0.022-5.252,3.934-7.912,8.807-7.912c2.034,0,3.576,0.357,4.358,0.736l-0.806,3.242   c-0.849-0.381-1.876-0.649-3.576-0.649c-2.48,0-4.536,1.297-4.536,4.36c0,2.816,1.809,4.447,4.267,4.447   c0.559,0,1.074-0.045,1.276-0.134v-2.593H17.03v-3.13h5.9V44.714z"/>
	<path fill="#FFFFFF" d="M32.029,45.652c-4.672,0-7.243-3.509-7.243-7.687c0-4.382,2.861-7.867,7.488-7.867   c4.85,0,7.308,3.598,7.308,7.62c0,4.85-2.904,7.934-7.531,7.934H32.029z M32.229,42.457c1.945,0,3.086-1.878,3.086-4.605   c0-2.593-1.163-4.56-3.13-4.56c-1.945,0-3.13,1.967-3.13,4.583c-0.022,2.703,1.185,4.581,3.13,4.581H32.229z"/>
	<path fill="#FFFFFF" d="M41.686,30.343h4.046v11.69h5.788v3.374h-9.834V30.343z"/>
	<path fill="#FFFFFF" d="M53.443,30.566c1.297-0.223,3.017-0.334,4.806-0.334c2.883,0,4.715,0.468,6.19,1.497   c1.655,1.139,2.727,3.017,2.727,5.788c0,3.086-1.161,5.075-2.614,6.214c-1.655,1.297-4.135,1.856-7.085,1.856   c-1.945,0-3.242-0.134-4.024-0.269V30.566z M57.489,42.412c0.201,0.045,0.582,0.045,0.849,0.045c2.615,0.044,4.56-1.408,4.56-4.806   c0-2.95-1.765-4.334-4.178-4.334c-0.626,0-1.029,0.043-1.23,0.089V42.412z"/>
	<path fill="#FFFFFF" d="M78.724,39.327h-5.409V42.1h6.056v3.307H69.27V30.343h9.788v3.308h-5.742v2.415h5.409V39.327z"/>
	<path fill="#FFFFFF" d="M81.564,45.407V30.343h4.761l2.391,4.627c0.825,1.497,1.698,3.509,2.369,5.274h0.065   c-0.223-1.988-0.312-4.09-0.312-6.325v-3.576h3.689v15.065H90.28l-2.569-5.006c-0.827-1.587-1.811-3.622-2.528-5.432h-0.089   c0.112,2.034,0.156,4.291,0.156,6.727v3.71H81.564z"/>
	<path fill="#FFFFFF" d="M105.615,41.92l-0.851,3.487h-4.178l4.38-15.065h5.365l4.492,15.065h-4.358l-0.962-3.487H105.615z    M108.944,38.949l-0.693-2.706c-0.223-0.849-0.513-2.077-0.736-2.972h-0.045c-0.223,0.894-0.448,2.123-0.671,2.972l-0.648,2.706   H108.944z"/>
	<path fill="#FFFFFF" d="M116.701,30.566c1.141-0.178,2.861-0.334,4.874-0.334c2.302,0,3.955,0.312,5.096,1.183   c0.96,0.738,1.473,1.811,1.473,3.264c0,1.878-1.408,3.197-2.569,3.643v0.067c0.984,0.446,1.542,1.408,1.921,2.703   c0.446,1.542,0.938,3.734,1.23,4.315h-4.113c-0.223-0.446-0.626-1.609-1.05-3.487c-0.401-1.787-0.962-2.168-2.212-2.168h-0.65   v5.655h-4V30.566z M120.702,36.847h1.053c1.519,0,2.391-0.738,2.391-1.856c0-1.117-0.738-1.765-2.079-1.765   c-0.76,0-1.163,0.046-1.364,0.091V36.847z"/>
	<path fill="#FFFFFF" d="M130.449,30.566c1.139-0.178,2.861-0.334,4.872-0.334c2.302,0,3.957,0.312,5.096,1.183   c0.962,0.738,1.475,1.811,1.475,3.264c0,1.878-1.408,3.197-2.571,3.643v0.067c0.986,0.446,1.542,1.408,1.923,2.703   c0.446,1.542,0.938,3.734,1.228,4.315h-4.111c-0.223-0.446-0.626-1.609-1.05-3.487c-0.403-1.787-0.962-2.168-2.214-2.168h-0.647   v5.655h-4.001V30.566z M134.45,36.847h1.05c1.521,0,2.391-0.738,2.391-1.856c0-1.117-0.736-1.765-2.079-1.765   c-0.76,0-1.161,0.046-1.362,0.091V36.847z"/>
	<path fill="#FFFFFF" d="M150.632,45.652c-4.67,0-7.241-3.509-7.241-7.687c0-4.382,2.861-7.867,7.488-7.867   c4.85,0,7.308,3.598,7.308,7.62c0,4.85-2.905,7.934-7.531,7.934H150.632z M150.833,42.457c1.945,0,3.084-1.878,3.084-4.605   c0-2.593-1.161-4.56-3.13-4.56c-1.943,0-3.128,1.967-3.128,4.583c-0.022,2.703,1.185,4.581,3.128,4.581H150.833z"/>
	<path fill="#FFFFFF" d="M162.436,45.407l-3.466-15.065h4.337l0.873,5.589c0.269,1.743,0.535,3.732,0.76,5.296h0.043   c0.247-1.698,0.559-3.509,0.895-5.363l0.96-5.521h4.315l0.938,5.79c0.269,1.743,0.47,3.286,0.671,4.984h0.045   c0.223-1.698,0.492-3.465,0.76-5.252l0.893-5.521h4.089l-3.708,15.065h-4.403l-1.007-5.9c-0.223-1.319-0.423-2.727-0.626-4.516   h-0.044c-0.247,1.768-0.448,3.197-0.715,4.516l-1.142,5.9H162.436z"/>
	<path fill="#FFFFFF" d="M180.228,41.385c0.916,0.468,2.391,0.938,3.912,0.938c1.386,0,2.056-0.47,2.056-1.23   c0-0.736-0.67-1.139-2.368-1.72c-2.549-0.916-4.248-2.302-4.248-4.537c0-2.66,2.259-4.715,6.057-4.715   c1.789,0,3.086,0.336,4.07,0.76l-0.851,3.241c-0.648-0.29-1.765-0.715-3.262-0.715c-1.23,0-1.9,0.446-1.9,1.117   c0,0.76,0.804,1.051,2.706,1.765c2.703,1.005,3.91,2.437,3.91,4.538c0,2.593-2.012,4.804-6.414,4.804   c-1.811,0-3.576-0.47-4.425-0.916L180.228,41.385z"/>
	<path fill="#FCDA00" d="M84.753,220.258h10.41v3.558h-6.058v2.982h5.697v3.509h-5.697v6.155h-4.352V220.258z"/>
	<path fill="#FCDA00" d="M114.543,236.03c-0.6,0.312-2.141,0.673-4.064,0.673c-6.058,0-8.726-3.776-8.726-8.079   c0-5.697,4.182-8.605,9.014-8.605c1.852,0,3.367,0.36,4.04,0.697l-0.841,3.438c-0.697-0.29-1.708-0.578-3.006-0.578   c-2.476,0-4.64,1.467-4.64,4.761c0,2.932,1.756,4.761,4.737,4.761c1.032,0,2.211-0.194,2.885-0.456L114.543,236.03z"/>
</g>
</svg>