<svg xmlns="http://www.w3.org/2000/svg" xmlns:xlink="http://www.w3.org/1999/xlink" id="Layer_1" width="200px" height="200px" viewBox="0 0 200 200" xml:space="preserve">

<g>
	<ellipse transform="matrix(0.7071 -0.7071 0.7071 0.7071 -41.4213 100)" cx="100" cy="100" rx="100" ry="100" fill="rgb(255, 255, 255)"/>
	<g>
		<path d="M100,28.9c-39.2,0-71.1,31.9-71.1,71.1c0,39.2,31.9,71.1,71.1,71.1c39.2,0,71.1-31.9,71.1-71.1    C171.1,60.8,139.2,28.9,100,28.9" fill="rgb(0, 156, 219)"/>
		<path d="M70.3,81l1.4,1.1h-1.4V81z M70.3,83H73V84h-2.7V83z M70.3,85.1H73v1.1h-2.7V85.1z M70.3,87.3H73v1.1h-2.7    V87.3z M70.3,89.5H73v1.1h-2.7V89.5z M70.3,91.7H73v1.1h-2.7V91.7z M70.3,93.9H73V95h-2.7V93.9z M70.3,96.1H73v1.1h-2.7V96.1z     M70.3,98.3H73v1.1h-2.7V98.3z M77.6,156.1h-6.1c0,0-0.1-0.1-0.1-0.1c-0.7-0.5-0.9-0.7-1.1-1h8.4    C78.2,155.2,77.9,155.6,77.6,156.1 M86.2,153.9H68.3c0,0-0.4-0.1-0.6-0.2c-0.1-0.1-0.5-0.2-0.5-0.2c-0.1-0.3-0.1-0.4-0.2-0.6h21.4    c-0.1,0-0.1,0-0.2,0C87.3,153,86.7,153.4,86.2,153.9 M88.9,152.8h6.4c-0.6,0.1-1.1,0.3-1.7,0.3c-1.4,0.1-2.6-0.3-4-0.3    C89.4,152.8,89.2,152.8,88.9,152.8 M98.2,152.8h9.6c-0.1,0.2-0.2,0.4-0.3,0.7l-1.1,0.2c-1.2-0.5-2.8-1.3-3.8-0.1    C100.9,153.6,99.6,153.1,98.2,152.8 M109,151.7H66c-0.1-0.4-0.2-0.7-0.3-1.1h50.6c-1.2,0.5-2.2,0.9-2.5,0.9    C112.7,151.6,110.4,151.3,109,151.7 M118.8,149.5H65.3c-0.1-0.4-0.4-0.7-0.5-1.1h55.9c-0.3,0.2-0.5,0.3-0.8,0.5    C119.8,149,119.4,149.2,118.8,149.5 M122.2,147.3H63.8c-0.1-0.4-0.4-0.7-0.6-1.1h60.2C123.1,146.6,122.7,147,122.2,147.3     M124.8,145.2H62.7l-0.4-1.1h63.6C125.5,144.4,125.2,144.8,124.8,145.2 M127,143H61.8c0.3-0.3,0.5-0.6,0.9-0.7    c0.6-0.1,0.8-0.2,1-0.4h64.5L127,143z M129.3,140.8l-65.4,0c0.2-0.4,0.3-0.7,0.4-1.1l66.2,0C130.1,140.1,129.7,140.4,129.3,140.8     M131.8,138.6H64.4c0-0.4,0-0.7-0.1-1.1h68.9C132.7,137.9,132.3,138.2,131.8,138.6 M134.6,136.4H64.1c-0.1-0.4-0.3-0.7-0.4-1.1    h72.2C135.5,135.7,135,136.1,134.6,136.4 M137.1,134.3H63.3l-0.5-1.1h75.3C137.8,133.6,137.4,133.9,137.1,134.3 M139.1,132.1H62.3    l-0.6-1.1h78.2C139.7,131.4,139.4,131.7,139.1,132.1 M140.8,129.9H61.2l-0.6-1.1l80.9,0C141.3,129.2,141,129.6,140.8,129.9     M109.8,126.6h33.2l-0.8,1.1h-36.2C107.4,127.4,108.6,127.1,109.8,126.6 M114.4,124.5h30.2c-0.3,0.4-0.5,0.7-0.8,1.1h-31.4    C113.1,125.2,113.8,124.8,114.4,124.5 M117.5,122.3h28.8c-0.3,0.4-0.6,0.7-0.9,1.1h-29.4C116.6,123,117.1,122.6,117.5,122.3     M94.6,127.7l-34.6,0l-0.6-1.1h31.4C92,127.1,93.3,127.4,94.6,127.7 M88.2,125.5l-29.4,0l-0.5-1.1h27.9    C86.9,124.8,87.6,125.2,88.2,125.5 M84.6,123.4H57.9l-0.5-1.1l25.7,0C83.6,122.6,84.1,123,84.6,123.4 M81.9,121.2l-24.8,0    l-0.4-1.1h24.1C81.1,120.5,81.5,120.8,81.9,121.2 M78.8,117.9c0.2,0.3,0.4,0.5,0.7,0.8l0.2,0.3l-23.4,0l-0.4-1.1L78.8,117.9z     M77.9,116.8H55.5l-0.4-1.1l22.1,0C77.4,116.1,77.7,116.4,77.9,116.8 M76.5,114.6l-21.8,0l-0.5-1.1h21.7    C76.1,113.9,76.3,114.3,76.5,114.6 M53.8,111.3h21.1c0.1,0.4,0.3,0.7,0.5,1.1H53.8V111.3z M53.8,109.2h20.4    c0.1,0.4,0.2,0.7,0.4,1.1H53.8V109.2z M53.8,107h19.9c0.1,0.3,0.2,0.7,0.3,1.1H53.8V107z M53.8,104.8h19.5c0,0.3,0.1,0.7,0.2,1.1    H53.8V104.8z M53.8,102.6H73v1.1H53.8V102.6z M53.8,100.4H73v1.1H53.8V100.4z M73.3,157.2h1.9c-0.1,0.1-0.2,0.1-0.2,0.1    s0,0,0.2-0.1c-0.6,0.2-0.7,0.3-0.7,0.3c-0.1,0-0.2,0-0.2,0s0,0,0.2,0C74,157.5,73.7,157.5,73.3,157.2c0.1,0.1,0.2,0.1,0.2,0.1    S73.4,157.3,73.3,157.2 M119.9,120.1h27.7v1.1h-28.8C119.2,120.8,119.6,120.5,119.9,120.1 M121.8,117.9H149v1.1h-28.1    C121.2,118.6,121.5,118.3,121.8,117.9 M123.4,115.7h26.8v1.1h-27.5C122.9,116.5,123.1,116.1,123.4,115.7 M124.6,113.5h26.1v1.1    H124C124.2,114.3,124.4,113.9,124.6,113.5 M125.6,111.3h25.7v1.1h-26.1C125.3,112.1,125.5,111.7,125.6,111.3 M126.4,109.2h21.3    v1.1H126C126.2,109.9,126.3,109.5,126.4,109.2 M126.9,107h19.8v1.1h-20.1C126.8,107.7,126.9,107.4,126.9,107 M127.3,104.8H147v1.1    h-19.9C127.2,105.5,127.3,105.2,127.3,104.8 M127.5,102.6h20.1v1.1h-20.2C127.5,103.4,127.5,103,127.5,102.6 M127.6,100.4h21.2    v1.1h-21.2v-0.1c0-0.2,0-0.4,0-0.6C127.5,100.7,127.5,100.6,127.6,100.4" fill-rule="evenodd" clip-rule="evenodd" fill="rgb(255, 255, 255)"/>
		<path d="M113.8,56.4h7.9v9.5h-12.8c-3.2,0-7,0.7-7,4.8c0,5,9.3,6.7,17,17c0.5,0.7,1.5,1.9,1.9,2.6    c2.1,3.6,2.8,5.9,2.9,11.3c0,0.8-0.2,8.1-6.1,14.7c-3.5,3.9-6.9,6.6-16.8,7.4c-3.2,0.3-21.4-1.9-23.3-20.3l0-4.8l10,0    c0,0,0.1,1.4,0.1,2.2c0,7.1,6.8,12.8,13.7,12.3c11.8-0.8,12.4-12.3,12.4-13.1c-0.2-12-18.7-14.8-21.3-25.4    c-0.1-0.3-0.4-1.3-0.4-2.1c0,0-0.2-3-0.1-3.6C95.9,54.3,107.2,56.4,113.8,56.4" fill-rule="evenodd" clip-rule="evenodd" fill="rgb(255, 255, 255)"/>
		<path d="M89.5,100.5c0-6.2,5-11.2,11.2-11.2c6.2,0,11.2,5,11.2,11.2c0,6.2-5,11.2-11.2,11.2    C94.5,111.7,89.5,106.7,89.5,100.5" fill-rule="evenodd" clip-rule="evenodd" fill="rgb(255, 255, 255)"/>
		<path d="M103,109.9c0,0-0.5,1.3-2.8,1.4c-0.5,0-2.4-0.4-2.4-0.4l-0.7-0.2v-0.8H103z M97.8,91h4.3l-0.2-1h-3    c0,0-1,0-1.2,0.4C97.7,90.9,97.8,91,97.8,91 M97.1,91.6l-5,3.9l-0.5-0.7c0,0,1.6-2.4,4.2-3.6l1-0.5L97.1,91.6z M90.2,101.8    l0.5,0.4l1.6,3.9v0.3l-0.4,0c0,0-1.2-1.4-1.7-3.9C90.1,102.2,90.2,101.8,90.2,101.8 M95.9,101.4l1,3.6l-1.7,2.5    c0,0-2.5-0.7-2.6-1.1c-0.1-0.4-1.8-4.4-1.8-4.4l1.3-2.2L95.9,101.4z M104.1,107.6l-2.6-2.6h-3.8l-1.8,2.3l-0.1,1l1.5,1.4h5.3    L104.1,107.6z M107.2,99.6l-4.6,1.7l-0.8,3.6l2.5,2.4c0,0,1.8,0.4,3.3-1c0.7-0.6,1.5-4.4,1.5-4.4L107.2,99.6z M110.2,100.3    l0.9,0.5c0,0-0.3,4.3-2.3,6.5c-0.3,0.3-0.8-0.9-0.8-0.9l1.4-4.3L110.2,100.3z M109.1,94.7l0,1.8l1.4,3.3l0.7,0.1v-1.7    c0,0-1.3-3.4-1.7-3.6C109.1,94.5,109.1,94.7,109.1,94.7 M103,93l4,3l1.6-0.1v-2.3c0,0-2.7-2.6-4.8-2.8c-1-0.1-1.6,0.3-1.6,0.3    L103,93z M99.4,94.1v4.5l3.2,2.4l4.6-1.8l-0.5-3.4l-3.9-2.7L99.4,94.1z M96,92.8l-3.6,2.8l0,3.9l3.8,1.6l2.9-2.4v-4.5l-1.4-0.9    l-1.3-0.5L96,92.8z" fill-rule="evenodd" clip-rule="evenodd" fill="rgb(0, 156, 219)"/>
		<path d="M105.9,68.6h16.6v19.1c-2.1-2.7-4.9-5.6-7.6-8c-6.2-5.5-10.5-6.1-10.6-8.6C104.3,69.7,104.9,69.2,105.9,68.6" fill-rule="evenodd" clip-rule="evenodd" fill="rgb(255, 255, 255)"/>
		<path d="M106.2,69.1h15.9v17.1c-1.9-2.4-4.5-4.9-6.9-7.1c-5.6-4.9-10.2-6.4-10.2-7.9    C104.9,70.1,105.1,69.6,106.2,69.1" fill-rule="evenodd" clip-rule="evenodd" fill="rgb(0, 156, 219)"/>
		<path d="M89.9,74.2c2.3,6.8,4,9.7,10.7,13.3c-4.8,0.1-8.3,2.6-10.7,5.4V74.2z" fill-rule="evenodd" clip-rule="evenodd" fill="rgb(255, 255, 255)"/>
		<path d="M90.3,77.1c1.8,5,4.3,7.6,8.7,10c-4.4,0.5-6.9,2.5-8.7,4.6V77.1z" fill-rule="evenodd" clip-rule="evenodd" fill="rgb(0, 156, 219)"/>
		<polygon points="124.5,56.4 134.3,56.4 134.3,87.6 145.5,87.6 145.5,96.3 124.5,96.3" fill-rule="evenodd" clip-rule="evenodd" fill="rgb(255, 255, 255)"/>
		<path d="M56.6,56.4h9.3l11.7,10.5l0-10.5h10.2l0,39.9H77.5l0-15.7c0,0-7.7-7-11.2-10.2v25.9h-9.7V56.4z" fill-rule="evenodd" clip-rule="evenodd" fill="rgb(255, 255, 255)"/>
		<path d="M125.9,98.5l21.4,0V85.8h-11.1v-32h-30.4c-5.9,0-12.1,2.6-15.8,13l0-13H75.2v8.1l-9.2-8.1H54.5v44.7h13.9V76    l6.8,6.8l0,20.2l0,0.3c1.5,12.8,12.1,22.8,25.1,22.8c14,0,25.3-11.5,25.3-25.8c0-0.6,0-1.3-0.1-1.9H125.9z M53.8,53.1h12.5    l8.2,7.3v-7.3h16.2c0,0,0,9.6,0,10.2c5.3-11.7,15.6-10.2,15.6-10.2h30.6v31.9H148v14.1h-21.5c0,0.4,0,0.8,0,1.2    c0,14.7-11.7,26.6-26.1,26.6c-13.4,0-24.4-10.3-25.9-23.5l0-20.4l-5.4-5.1v21.4H53.8V53.1z" fill="rgb(255, 255, 255)"/>
	</g>
	<g>
		<path d="M100,0C44.9,0,0,44.9,0,100s44.9,100,100,100c55.1,0,100-44.9,100-100S155.1,0,100,0z M99.7,194.3    c-52.1,0-94.5-42.4-94.5-94.5S47.6,5.3,99.7,5.3s94.5,42.4,94.5,94.5S151.8,194.3,99.7,194.3z" fill="rgb(0, 156, 219)"/>
	</g>
	<g>
		<path d="M18.2,102.4l-2.3,0.3l-3.3,0.2l-0.2-3.6l10.3-0.6l0.2,3.5l-5.4,4.4l2.3-0.3l3.3-0.2l0.2,3.6L13,110.3    l-0.2-3.5L18.2,102.4z" fill="rgb(0, 156, 219)"/>
		<path d="M22.7,97L13,91.7l0.4-3.8L24.1,85l-0.4,3.7L22.3,89l-0.4,3.7l1.3,0.6L22.7,97z M16.3,90.2l3.5,1.6l0.3-2.4    L16.3,90.2z" fill="rgb(0, 156, 219)"/>
		<path d="M14.2,82.7l2.7-10.2l2.6,0.7l-0.9,3.3l7.4,2l-1,3.6l-7.4-2l-0.9,3.3L14.2,82.7z" fill="rgb(0, 156, 219)"/>
		<path d="M27.7,73.1l-9.6-3.8l1.4-3.5l9.6,3.8L27.7,73.1z" fill="rgb(0, 156, 219)"/>
		<path d="M31.2,54.4c3.1,1.7,3.5,5,1.8,7.9c-1.8,3.1-4.7,4.2-7.8,2.5c-2.8-1.6-3.5-4.7-1.7-7.9    C25.6,53.4,28.9,53.1,31.2,54.4z M27.2,61.6c1.1,0.6,2.8,1.1,3.7-0.5c0.8-1.4,0-2.6-1.5-3.4c-1.2-0.7-2.8-0.9-3.6,0.6    C24.9,59.7,26,60.9,27.2,61.6z" fill="rgb(0, 156, 219)"/>
		<path d="M38.3,46.4L36.4,45l-2.5-2.1l2.3-2.8l8,6.6l-2.2,2.7L34.9,49l1.9,1.4l2.5,2.1L37,55.2l-8-6.6l2.2-2.7    L38.3,46.4z" fill="rgb(0, 156, 219)"/>
		<path d="M45.2,45.5L41.6,35l2.9-2.5l9.8,5.1l-2.8,2.4l-1.2-0.7l-2.8,2.4l0.6,1.3L45.2,45.5z M45.1,36.1l1.5,3.6    l1.8-1.5L45.1,36.1z" fill="rgb(0, 156, 219)"/>
		<path d="M55.9,36.7l-5.5-8.8l3.2-2l4.2,6.7l4.4-2.7l1.3,2L55.9,36.7z" fill="rgb(0, 156, 219)"/>
		<path d="M74,19.7c-0.2-0.3-0.4-0.5-0.7-0.5c-0.3,0-0.6,0-1,0.1c-0.8,0.3-1.1,0.6-0.9,0.9c0.5,1.5,6.4-1.6,7.6,2    c0.8,2.3-0.9,4.1-3.9,5.1c-2.9,1-5.2,0.1-5.9-1.6l3.4-1.2c0.2,0.3,0.5,0.5,0.9,0.6c0.3,0.1,0.7,0,1.1-0.1c0.9-0.3,1.4-0.8,1.2-1.2    c-0.5-1.5-6.4,1.7-7.7-2.1c-0.7-2.1,0.9-3.8,3.6-4.7c3-1,4.9-0.1,5.7,1.5L74,19.7z" fill="rgb(0, 156, 219)"/>
		<path d="M92.6,17.8c0.6,3.5-1.7,5.8-5.1,6.4c-3.6,0.6-6.2-1-6.8-4.5c-0.5-3.2,1.5-5.7,5.1-6.2    C89.8,12.8,92.1,15.1,92.6,17.8z M84.4,19.1c0.2,1.3,0.9,2.9,2.7,2.6c1.6-0.3,2-1.6,1.8-3.3c-0.2-1.4-1.1-2.8-2.7-2.4    C84.4,16.2,84.2,17.9,84.4,19.1z" fill="rgb(0, 156, 219)"/>
		<path d="M102.8,16.6c-0.1-1.1-0.8-1.7-2-1.7c-1.3,0-2.1,1-2.2,3c0,1.4,0.3,2.8,2.2,2.8c1.2,0,1.8-0.7,2-1.7l3.6,0.1    c-0.4,2.7-2.5,4.2-5.5,4.2c-3.8-0.1-6-2.2-6-5.5c0.1-3.3,2.6-5.4,5.8-5.3c3.5,0.1,5.4,1.7,5.7,4.3L102.8,16.6z" fill="rgb(0, 156, 219)"/>
		<path d="M116.5,18.1c0.1-1.1-0.6-1.8-1.7-2c-1.3-0.2-2.3,0.6-2.6,2.6c-0.2,1.4-0.1,2.8,1.7,3.2    c1.2,0.2,1.9-0.4,2.2-1.4l3.6,0.6c-0.8,2.6-3.2,3.8-6.1,3.3c-3.7-0.7-5.6-3.1-5-6.4c0.6-3.3,3.4-4.9,6.6-4.4    c3.5,0.6,5.1,2.5,4.9,5.1L116.5,18.1z" fill="rgb(0, 156, 219)"/>
		<path d="M121,25.7l3.4-9.7l8.8,3.1l-0.8,2.3l-5.3-1.8l-0.5,1.4l4.5,1.6l-0.8,2.3l-4.5-1.6l-0.5,1.5l5.5,1.9l-0.8,2.3    L121,25.7z" fill="rgb(0, 156, 219)"/>
		<path d="M137,28.3l-1.7,3.2l-3.3-1.8l4.9-9.1l4.8,2.6c3.4,1.8,4,3.2,3.1,5c-0.6,1-1.6,1.6-2.9,1.3    c0.9,0.9,1.4,1.5,0.4,3.3c-0.6,1.2-0.9,1.6-0.5,1.8l-0.1,0.3l-3.3-1.8c0-0.2,0.3-0.9,0.7-1.7c0.6-1.2,0.6-1.7-0.9-2.5L137,28.3z     M138.1,26.3l1.3,0.7c1,0.6,1.7,0.6,2,0c0.3-0.6,0-1.2-0.8-1.7l-1.5-0.8L138.1,26.3z" fill="rgb(0, 156, 219)"/>
		<path d="M148.1,39.6l6.9-7.7l2.8,2.5l-5.3,5.9l3.9,3.4l-1.6,1.8L148.1,39.6z" fill="rgb(0, 156, 219)"/>
		<path d="M156.2,47.1l7.9-6.6l6,7.2l-1.8,1.5l-3.6-4.3l-1.1,0.9l3,3.6l-1.8,1.5l-3-3.6l-1.2,1l3.7,4.5l-1.8,1.5    L156.2,47.1z" fill="rgb(0, 156, 219)"/>
		<path d="M163.2,55.5l11-1.8l2,3.3l-6.8,8.8l-1.9-3.2l0.9-1.1l-1.9-3.2l-1.4,0.3L163.2,55.5z M172.5,57l-3.8,0.9l1.2,2    L172.5,57z" fill="rgb(0, 156, 219)"/>
		<path d="M174,77.8l-0.9-2.3L174,75c-0.8-0.3-1.8-1.1-2.4-2.8c-1-2.7-0.4-5.8,3-7.1c3.1-1.2,6,0.2,7.3,3.6    c1,2.6,0.6,5.1-1.6,6.4l-1.3-3.3c0.7-0.6,0.9-1.4,0.5-2.3c-0.5-1.4-1.9-1.6-3.6-1c-1.4,0.5-2.4,1.5-1.8,3.2    c0.3,0.7,1.1,1.5,1.8,1.4l-0.6-1.5l2.1-0.8l1.8,4.8L174,77.8z" fill="rgb(0, 156, 219)"/>
		<path d="M184.9,78.3l0.7,3.7l-6.1,1.1c-1,0.2-1.8,0.6-1.5,2.1c0.3,1.3,1.1,1.6,2.2,1.4l6.1-1.1l0.7,3.7l-5.7,1.1    c-3.3,0.6-5-0.8-5.7-4.5c-0.7-3.5,0.2-5.7,3.7-6.3L184.9,78.3z" fill="rgb(0, 156, 219)"/>
		<path d="M177,93.8l10.3-0.2l0.2,9.3l-2.4,0.1l-0.1-5.6l-1.5,0l0.1,4.7l-2.4,0.1l-0.1-4.7l-1.6,0l0.1,5.8l-2.4,0.1    L177,93.8z" fill="rgb(0, 156, 219)"/>
	</g>
	<g>
		<path d="M57.5,176.5l4.9-9.1l8.2,4.4l-1.1,2.1l-4.9-2.7l-0.7,1.3l4.2,2.2l-1.1,2.1l-4.2-2.3l-0.8,1.4l5.1,2.8    l-1.1,2.1L57.5,176.5z" fill="rgb(0, 156, 219)"/>
		<path d="M76.5,177.3c0.1-0.4-0.1-0.6-0.3-0.8c-0.2-0.2-0.5-0.4-0.9-0.5c-0.8-0.3-1.2-0.2-1.3,0.2    c-0.5,1.5,6,2.8,4.8,6.3c-0.8,2.3-3.3,2.6-6.2,1.6c-2.9-1-4.2-3.2-3.6-5l3.4,1.2c0,0.4,0.1,0.7,0.3,1c0.2,0.3,0.6,0.5,0.9,0.6    c0.9,0.3,1.6,0.3,1.7-0.2c0.5-1.5-6-2.7-4.7-6.4c0.7-2.1,3.1-2.4,5.8-1.4c3,1.1,3.9,2.9,3.5,4.7L76.5,177.3z" fill="rgb(0, 156, 219)"/>
		<path d="M81.5,175.8l10.3,1.9l-0.5,2.7l-3.3-0.6l-1.4,7.5l-3.7-0.7l1.4-7.5l-3.3-0.6L81.5,175.8z" fill="rgb(0, 156, 219)"/>
		<path d="M90.2,187.8l0.3-2.9l3.4,0.3l-0.3,2.9L90.2,187.8z" fill="rgb(0, 156, 219)"/>
		<path d="M108.3,187.9l-3.3,0.3l-0.5-5.9l-2.6,0.2l-0.2-2c1.7-0.2,3-0.8,3.2-2.6l2.5-0.2L108.3,187.9z" fill="rgb(0, 156, 219)"/>
		<path d="M115.5,184.1c0.3,0.5,0.8,0.6,1.5,0.5c1.2-0.3,1.5-1.4,1.2-2.6c-0.7,0.7-1.4,1.1-2.4,1.3    c-2.5,0.6-4.1-0.9-4.4-2.3c-0.5-2.4,1.1-3.9,3.6-4.5c3.2-0.7,5.5,0.4,6.3,4c0.7,3-0.6,5.5-3.6,6.2c-2.1,0.5-4.1,0.3-5.1-1.6    L115.5,184.1z M117.4,179.4c-0.2-0.7-1-1.1-1.7-0.9c-0.9,0.2-1.3,0.9-1.1,1.7c0.2,0.8,0.9,1.2,1.7,1    C117.3,180.9,117.5,180.2,117.4,179.4z" fill="rgb(0, 156, 219)"/>
		<path d="M121.7,177.7c-0.7-1.8,1-3.4,3.3-4.3c2.4-0.9,4.4-0.4,5,1.1c0.3,0.9,0.2,1.8-0.6,2.5c1.3,0,2.2,0.4,2.6,1.5    c0.7,1.9-0.7,3.7-3.4,4.7c-2.5,0.9-4.9,0.8-5.7-1.3c-0.4-1.1,0-1.9,0.9-2.8C122.8,179.1,122.1,178.9,121.7,177.7z M127.2,175.9    c-0.2-0.6-1-0.8-1.7-0.5c-0.8,0.3-1.2,0.9-0.9,1.6c0.3,0.7,1,0.7,1.7,0.5S127.5,176.5,127.2,175.9z M128.8,179.5    c-0.3-0.8-1-1-1.9-0.7c-0.9,0.3-1.3,1-1,1.8c0.3,0.9,1.4,0.9,2.3,0.4C128.9,180.7,129.1,180.2,128.8,179.5z" fill="rgb(0, 156, 219)"/>
		<path d="M131.1,170.9l6.3-3.5l1.2,2.1l-4.3,2.4l0.4,1.5c0.4-0.7,1-1.2,1.8-1.6c1.9-1,3.9-0.8,4.9,0.9    c1.4,2.4-0.3,4.4-2.6,5.7c-2.1,1.2-4,1.1-5.5-0.2l2.8-1.9c0,0,0.1,0,0.1,0.1c0.4,0.4,1.1,0.3,1.6,0c0.8-0.5,1.1-1.3,0.8-1.9    c-0.4-0.7-1.1-1.1-2-0.6c-0.4,0.2-0.9,0.6-0.9,1.1l-2.8,1.4L131.1,170.9z" fill="rgb(0, 156, 219)"/>
	</g>
	<g>
		<circle cx="52.6" cy="167" r="2.1" fill="rgb(0, 156, 219)"/>
		<circle cx="148.1" cy="167" r="2.1" fill="rgb(0, 156, 219)"/>
	</g>
</g>
</svg>